<svg xmlns="http://www.w3.org/2000/svg" xmlns:xlink="http://www.w3.org/1999/xlink" width="205.173" height="89.279" viewBox="0 0 205.173 89.279">
  <defs>
    <filter id="Tracé_178" x="0" y="0" width="205.173" height="89.279" filterUnits="userSpaceOnUse">
      <feOffset dy="3" input="SourceAlpha"/>
      <feGaussianBlur stdDeviation="3" result="blur"/>
      <feFlood flood-opacity="0.161"/>
      <feComposite operator="in" in2="blur"/>
      <feComposite in="SourceGraphic"/>
    </filter>
  </defs>
  <g id="LENGO_logo_" data-name="LENGO logo " transform="translate(9 6)">
    <g id="Layer_2_00000098185477699541404880000005258497022262429842_">
      <g id="Layer_1-2">
        <path id="Tracé_176" data-name="Tracé 176" d="M392.515,98.8a6.674,6.674,0,1,0,4.775,11.391,6.463,6.463,0,0,0,1.9-3.883v-1.668a6.46,6.46,0,0,0-1.9-3.912A6.6,6.6,0,0,0,392.515,98.8Z" transform="translate(-274.896 -70.378)" fill="#ffc515"/>
        <path id="Tracé_177" data-name="Tracé 177" d="M173.458,100.674a6.681,6.681,0,0,0-10.758,4v.719l11.333-4.228Z" transform="translate(-115.9 -70.672)" fill="#ffc515"/>
        <g transform="matrix(1, 0, 0, 1, -9, -6)" filter="url(#Tracé_178)">
          <path id="Tracé_178-2" data-name="Tracé 178" d="M151.533,0H35.64A35.761,35.761,0,0,0,0,35.64H0a35.743,35.743,0,0,0,35.64,35.64H151.533a35.743,35.743,0,0,0,35.64-35.64h0A35.761,35.761,0,0,0,151.533,0ZM27.5,49.073l.058-36.905v-.489h7.594l.086,37.394Zm30.663-1.007C50.626,50.885,42.6,47.232,40.012,40.3l-.058-.173a14.28,14.28,0,0,1,26.751-9.953,15.35,15.35,0,0,1,.748,2.79L48.785,39.983a6.682,6.682,0,0,0,10.585-2.071l8.14-3.049a14.286,14.286,0,0,1-9.349,13.2Zm42.2.949-7.738-.086V39.35l-.058-3.481a12.973,12.973,0,0,0,0-1.5,6.8,6.8,0,0,0-6.7-5.983,6.679,6.679,0,0,0-6.7,6.443V48.987H71.423v-.374c0-9.032.058-18.036.058-27.01v-.288h7.594v1.438a15.375,15.375,0,0,1,6.788-1.582,14.212,14.212,0,0,1,10.183,4.113,13.51,13.51,0,0,1,4.315,9.377Zm31.728,1.409c0,7.594-6.213,13.922-14.5,13.922a14.255,14.255,0,0,1-14.44-13.922v-.431h7.738v.431a6.734,6.734,0,0,0,6.7,6.645,6.543,6.543,0,0,0,6.731-6.645l.058-2.963a14.629,14.629,0,0,1-6.789,1.582,14.26,14.26,0,0,1-14.44-13.951,14.274,14.274,0,0,1,14.44-13.922,15.1,15.1,0,0,1,6.7,1.5V21.286h7.738V27.24a13.985,13.985,0,0,0,.058,15.936Zm32.706-14.066h-5.523a13.812,13.812,0,1,1,.029-1.783h-4.228a9.369,9.369,0,1,0-.029,1.783h-4.717a4.905,4.905,0,1,1,.086-1.755H146.96l-1.812.805h19.646v.949Z" transform="translate(9 6)" fill="#ffc515"/>
        </g>
        <path id="Tracé_179" data-name="Tracé 179" d="M95.629,40.6v.489L95.6,77.994h7.738L103.251,40.6Z" transform="translate(-68.101 -28.921)" fill="#035b2f"/>
        <path id="Tracé_180" data-name="Tracé 180" d="M152.647,93.953a6.574,6.574,0,0,1-6.875-1.352l18.668-7.019a13.324,13.324,0,0,0-.748-2.79,14.266,14.266,0,0,0-26.723,9.953l.057.173c2.589,6.932,10.614,10.585,18.151,7.767a14.307,14.307,0,0,0,9.349-13.232l-8.14,3.049A6.763,6.763,0,0,1,152.647,93.953ZM143.816,86.7a6.7,6.7,0,0,1,10.758-4l.6.489-11.333,4.228Z" transform="translate(-96.987 -52.676)" fill="#035b2f"/>
        <path id="Tracé_181" data-name="Tracé 181" d="M272.923,77.609A14.212,14.212,0,0,0,262.74,73.5a14.992,14.992,0,0,0-6.789,1.582V73.64h-7.594v.288c0,8.975-.058,17.978-.058,27.01v.431h7.738V87.217a6.66,6.66,0,0,1,6.7-6.443,6.8,6.8,0,0,1,6.7,5.983,12.982,12.982,0,0,1,0,1.5l.057,3.481v9.55l7.738.086V86.987A13.51,13.51,0,0,0,272.923,77.609Z" transform="translate(-176.877 -52.354)" fill="#035b2f"/>
        <path id="Tracé_182" data-name="Tracé 182" d="M387.58,79.569V73.615h-7.738V75a15.415,15.415,0,0,0-6.7-1.5,13.945,13.945,0,1,0,0,27.873,14.628,14.628,0,0,0,6.789-1.582l-.058,2.963a6.56,6.56,0,0,1-6.731,6.645,6.734,6.734,0,0,1-6.7-6.645v-.431H358.7v.431a14.274,14.274,0,0,0,14.44,13.922c8.284,0,14.5-6.3,14.5-13.922V95.505a13.985,13.985,0,0,1-.058-15.936Zm-7.766,8.716a6.631,6.631,0,1,1-1.9-5.58,6.46,6.46,0,0,1,1.9,3.912Z" transform="translate(-255.52 -52.358)" fill="#035b2f"/>
        <path id="Tracé_183" data-name="Tracé 183" d="M473.466,87.752h3.452a4.858,4.858,0,1,0-4.2,5.437,4.816,4.816,0,0,0,4.085-3.653h4.746a9.653,9.653,0,1,1,.029-1.783h4.228a13.695,13.695,0,1,0-.029,1.783h5.552v-.978H471.654Z" transform="translate(-326.506 -53.177)" fill="#035b2f"/>
      </g>
    </g>
  </g>
</svg>
